<?xml version="1.0" standalone="no"?>
<!DOCTYPE svg PUBLIC "-//W3C//DTD SVG 20010904//EN"
 "http://www.w3.org/TR/2001/REC-SVG-20010904/DTD/svg10.dtd">
<svg version="1.0" xmlns="http://www.w3.org/2000/svg"
 width="351.000000pt" height="129.000000pt" viewBox="0 0 351.000000 129.000000"
 preserveAspectRatio="xMidYMid meet">

<g transform="translate(0.000000,129.000000) scale(0.100000,-0.100000)"
fill="#000000" stroke="none">
<path d="M1469 1061 l-24 -19 0 -380 c0 -360 1 -381 19 -401 24 -26 77 -28 99
-3 15 17 17 59 17 400 l0 381 -26 20 c-33 26 -55 26 -85 2z"/>
<path d="M1761 1061 c-26 -26 -28 -82 -3 -103 10 -9 45 -18 86 -21 78 -6 110
-24 139 -80 25 -49 16 -97 -27 -144 -31 -34 -37 -36 -110 -42 -87 -7 -106 -21
-106 -75 0 -26 24 -54 162 -193 141 -141 167 -163 194 -163 38 0 64 27 64 66
0 23 -20 50 -101 133 -55 57 -99 104 -97 105 2 2 19 12 38 24 123 73 169 227
106 355 -47 98 -127 148 -247 155 -68 4 -79 2 -98 -17z"/>
<path d="M445 1037 c-50 -17 -123 -76 -165 -135 -116 -161 -103 -381 32 -528
121 -132 242 -138 230 -12 -1 9 -19 26 -39 39 -104 62 -154 137 -161 244 -4
64 -1 75 30 135 31 60 47 76 142 143 26 18 35 67 18 94 -13 21 -55 31 -87 20z"/>
<path d="M2767 1035 c-86 -29 -182 -137 -218 -244 -65 -193 22 -415 198 -505
67 -34 127 -6 121 57 -2 26 -13 38 -51 63 -108 70 -147 137 -147 248 0 113 59
209 159 261 37 19 50 58 30 93 -19 34 -48 42 -92 27z"/>
<path d="M3052 1038 c-24 -12 -36 -42 -30 -79 3 -22 93 -95 146 -119 32 -14
74 7 86 43 14 38 -8 72 -76 119 -61 43 -93 52 -126 36z"/>
<path d="M706 1018 c-33 -47 -23 -68 64 -131 124 -90 160 -227 94 -358 -24
-48 -74 -98 -124 -124 -52 -27 -66 -79 -30 -115 41 -41 118 -13 205 74 155
155 163 403 16 568 -88 99 -189 138 -225 86z"/>
<path d="M3110 435 c-90 -61 -90 -62 -90 -99 0 -60 57 -84 122 -50 55 29 118
94 118 124 0 31 -37 70 -66 70 -10 0 -48 -20 -84 -45z"/>
</g>
</svg>
